<svg xmlns="http://www.w3.org/2000/svg" xmlns:xlink="http://www.w3.org/1999/xlink" width="500" zoomAndPan="magnify" viewBox="0 0 375 374.999991" height="500" preserveAspectRatio="xMidYMid meet" version="1.0"><defs><g/><clipPath id="3fb5a06639"><path d="M 187.5 0 C 83.945312 0 0 83.945312 0 187.5 C 0 291.054688 83.945312 375 187.5 375 C 291.054688 375 375 291.054688 375 187.5 C 375 83.945312 291.054688 0 187.5 0 Z M 187.5 0 " clip-rule="nonzero"/></clipPath><clipPath id="755138e50b"><path d="M 0 0 L 375 0 L 375 375 L 0 375 Z M 0 0 " clip-rule="nonzero"/></clipPath><clipPath id="2b61c4e27b"><path d="M 187.5 0 C 83.945312 0 0 83.945312 0 187.5 C 0 291.054688 83.945312 375 187.5 375 C 291.054688 375 375 291.054688 375 187.5 C 375 83.945312 291.054688 0 187.5 0 Z M 187.5 0 " clip-rule="nonzero"/></clipPath><clipPath id="1c565244ee"><rect x="0" width="375" y="0" height="375"/></clipPath><clipPath id="1edc41cbde"><rect x="0" width="279" y="0" height="190"/></clipPath></defs><g clip-path="url(#3fb5a06639)"><g transform="matrix(1, 0, 0, 1, 0, 0)"><g clip-path="url(#1c565244ee)"><g clip-path="url(#755138e50b)"><g clip-path="url(#2b61c4e27b)"><rect x="-82.5" width="540" fill="#16171d" height="539.999987" y="-82.499998" fill-opacity="1"/></g></g></g></g></g><g transform="matrix(1, 0, 0, 1, 48, 92)"><g clip-path="url(#1edc41cbde)"><g fill="#c31d1c" fill-opacity="1"><g transform="translate(0.744465, 148.507898)"><g><path d="M 58.554688 -117.390625 C 58 -93.941406 60.636719 -31.777344 4.300781 -1.664062 C 9.851562 2.082031 15.125 7.355469 18.039062 11.792969 C 46.902344 -5.132812 61.46875 -30.25 69.101562 -54.671875 C 77.148438 -30.804688 92.550781 -3.746094 123.355469 10.960938 C 125.578125 6.242188 130.292969 0.695312 135.429688 -3.332031 C 87 -24.699219 78.539062 -77.011719 76.59375 -95.742188 C 77.148438 -104.070312 77.425781 -111.5625 77.566406 -117.390625 Z M 58.554688 -117.390625 "/></g></g></g><g fill="#c31d1c" fill-opacity="1"><g transform="translate(139.499927, 148.507898)"><g><path d="M 38.4375 -114.476562 C 36.214844 -110.035156 33.300781 -105.734375 30.25 -101.15625 C 26.503906 -106.011719 22.0625 -110.453125 16.511719 -115.03125 L 5.132812 -106.289062 C 11.65625 -100.738281 16.789062 -95.050781 20.535156 -89.082031 C 15.125 -83.253906 9.296875 -77.84375 3.332031 -73.542969 C 6.9375 -71.042969 12.210938 -66.050781 14.707031 -62.71875 C 19.011719 -66.050781 23.3125 -69.796875 27.335938 -73.820312 C 28.722656 -69.519531 29.554688 -65.078125 30.25 -60.359375 C 23.726562 -49.398438 12.90625 -37.882812 3.332031 -31.914062 C 7.214844 -29 11.65625 -23.449219 14.292969 -19.703125 C 19.84375 -24.144531 25.671875 -30.25 31.21875 -36.910156 C 30.941406 -22.339844 29.832031 -10.40625 27.058594 -6.800781 C 25.949219 -5.273438 24.699219 -4.578125 22.757812 -4.300781 C 19.84375 -4.023438 14.847656 -3.886719 8.046875 -4.441406 C 10.824219 0.277344 12.347656 6.105469 12.488281 11.378906 C 19.011719 11.65625 24.835938 11.515625 30.25 10.269531 C 33.855469 9.4375 36.910156 7.492188 38.992188 4.71875 C 45.375 -3.746094 46.902344 -22.480469 46.902344 -41.488281 C 46.902344 -57.308594 45.652344 -72.433594 38.992188 -86.863281 C 44.265625 -93.382812 48.980469 -100.183594 52.867188 -107.261719 Z M 72.988281 -65.492188 L 109.34375 -65.492188 L 109.34375 -54.949219 L 72.988281 -54.949219 Z M 109.34375 -88.804688 L 109.34375 -79.371094 L 72.988281 -79.371094 L 72.988281 -88.804688 Z M 121.832031 -39.683594 C 117.667969 -36.078125 111.699219 -31.636719 106.011719 -28.027344 C 103.375 -32.054688 100.878906 -36.214844 98.796875 -40.796875 L 125.4375 -40.796875 L 125.4375 -102.957031 L 101.15625 -102.957031 C 99.488281 -107.816406 96.574219 -113.78125 94.078125 -118.5 L 79.507812 -114.476562 C 81.171875 -111.007812 82.976562 -106.84375 84.367188 -102.957031 L 72.988281 -102.957031 L 72.988281 -103.097656 L 56.753906 -103.097656 L 56.753906 -14.429688 C 56.753906 -7.078125 51.894531 -1.804688 48.703125 0.695312 C 51.339844 3.191406 55.640625 9.019531 57.167969 12.628906 C 60.359375 10.269531 65.492188 8.046875 93.800781 -0.832031 C 92.96875 -4.164062 92.136719 -10.546875 91.859375 -14.847656 L 72.988281 -9.574219 L 72.988281 -40.796875 L 82.976562 -40.796875 C 91.164062 -18.59375 104.761719 -0.417969 124.1875 9.15625 C 126.6875 4.855469 131.542969 -1.109375 135.152344 -4.300781 C 127.796875 -7.355469 120.996094 -11.792969 115.308594 -17.484375 C 120.859375 -20.8125 127.242188 -24.835938 132.375 -28.863281 Z M 121.832031 -39.683594 "/></g></g></g></g></g></svg>